<svg xmlns="http://www.w3.org/2000/svg" style="display: none;"><symbol id="visibility" viewBox="0 0 512 512"><title>visibility</title><g> <g> <path d="M487.464,232.092c-4.15-5.321-11.825-6.267-17.147-2.12c-5.32,4.15-6.269,11.826-2.12,17.147 c4.078,5.23,4.078,12.533,0,17.763c-29.884,38.315-68.55,67.106-112.08,84.513c22.879-24.497,36.888-57.346,36.888-93.395 c0-35.907-13.892-68.638-36.576-93.083c25.153,10.114,48.798,24.014,69.966,41.37c2.627,2.153,5.246,4.386,7.79,6.638 c5.052,4.473,12.772,4.003,17.245-1.048c4.473-5.051,4.003-12.773-1.048-17.245c-2.773-2.457-5.632-4.892-8.496-7.239 c-52.22-42.815-118.237-66.394-185.886-66.394c-91.043,0-175.408,41.221-231.463,113.094c-10.979,14.077-10.979,33.74,0,47.818 c56.055,71.873,140.42,113.094,231.463,113.094c91.041,0,175.407-41.221,231.464-113.094 C498.443,265.831,498.443,246.169,487.464,232.092z M43.804,264.882c-4.078-5.23-4.078-12.533,0-17.763 c29.877-38.308,68.535-67.095,112.057-84.504C133.006,187.1,118.995,219.936,118.995,256c0,36.051,14.01,68.9,36.865,93.386 C112.339,331.977,73.68,303.19,43.804,264.882z M256.149,368.567c-0.049,0-0.098,0.001-0.148,0.001 c-0.05,0-0.098-0.001-0.148-0.001c-62.007-0.08-112.424-50.542-112.424-112.567s50.416-112.487,112.424-112.567 c0.049,0,0.098-0.001,0.148-0.001c0.038,0,0.076,0.001,0.114,0.001c62.022,0.061,112.457,50.53,112.457,112.567 C368.572,318.025,318.156,368.487,256.149,368.567z"/> </g> </g><g> <g> <path d="M256.001,204.16c-28.587,0-51.84,23.253-51.84,51.84s23.253,51.84,51.84,51.84s51.84-23.253,51.84-51.84 S284.588,204.16,256.001,204.16z M256.001,283.406c-15.108,0-27.406-12.298-27.406-27.406s12.298-27.406,27.406-27.406 s27.406,12.298,27.406,27.406S271.109,283.406,256.001,283.406z"/> </g> </g><g> <g> <path d="M256.001,0c-6.748,0-12.217,5.469-12.217,12.217V58.03c0,6.748,5.469,12.217,12.217,12.217s12.217-5.469,12.217-12.217 V12.217C268.218,5.469,262.748,0,256.001,0z"/> </g> </g><g> <g> <path d="M256.001,441.753c-6.748,0-12.217,5.469-12.217,12.217v45.813c0,6.748,5.469,12.217,12.217,12.217 s12.217-5.469,12.217-12.217V453.97C268.218,447.222,262.747,441.753,256.001,441.753z"/> </g> </g><g> <g> <path d="M437.021,74.98c-4.771-4.77-12.505-4.77-17.279,0l-22.795,22.795c-4.771,4.771-4.771,12.506,0,17.279 c2.386,2.385,5.511,3.578,8.639,3.578c3.126,0,6.252-1.193,8.639-3.578l22.797-22.795 C441.792,87.488,441.792,79.753,437.021,74.98z"/> </g> </g><g> <g> <path d="M115.055,396.946c-4.77-4.769-12.505-4.77-17.277,0l-22.797,22.795c-4.771,4.771-4.771,12.506,0,17.279 c2.386,2.385,5.513,3.578,8.639,3.578s6.252-1.193,8.639-3.578l22.797-22.795C119.826,409.453,119.826,401.719,115.055,396.946z"/> </g> </g><g> <g> <path d="M115.055,97.776L92.258,74.98c-4.771-4.77-12.506-4.77-17.277,0c-4.771,4.773-4.77,12.507,0,17.279l22.797,22.795 c2.385,2.385,5.513,3.578,8.639,3.578s6.254-1.193,8.639-3.578C119.826,110.281,119.825,102.547,115.055,97.776z"/> </g> </g><g> <g> <path d="M437.019,419.741l-22.795-22.795c-4.773-4.77-12.506-4.77-17.279,0c-4.771,4.773-4.771,12.507,0,17.279l22.797,22.795 c2.386,2.385,5.513,3.578,8.639,3.578c3.126,0,6.252-1.193,8.639-3.578C441.791,432.247,441.791,424.512,437.019,419.741z"/> </g> </g></symbol><symbol id="left-quote" viewBox="0 0 95.333 95.332"><title>left-quote</title><path d="M30.512,43.939c-2.348-0.676-4.696-1.019-6.98-1.019c-3.527,0-6.47,0.806-8.752,1.793 c2.2-8.054,7.485-21.951,18.013-23.516c0.975-0.145,1.774-0.85,2.04-1.799l2.301-8.23c0.194-0.696,0.079-1.441-0.318-2.045 s-1.035-1.007-1.75-1.105c-0.777-0.106-1.569-0.16-2.354-0.16c-12.637,0-25.152,13.19-30.433,32.076 c-3.1,11.08-4.009,27.738,3.627,38.223c4.273,5.867,10.507,9,18.529,9.313c0.033,0.001,0.065,0.002,0.098,0.002 c9.898,0,18.675-6.666,21.345-16.209c1.595-5.705,0.874-11.688-2.032-16.851C40.971,49.307,36.236,45.586,30.512,43.939z"/><path d="M92.471,54.413c-2.875-5.106-7.61-8.827-13.334-10.474c-2.348-0.676-4.696-1.019-6.979-1.019 c-3.527,0-6.471,0.806-8.753,1.793c2.2-8.054,7.485-21.951,18.014-23.516c0.975-0.145,1.773-0.85,2.04-1.799l2.301-8.23 c0.194-0.696,0.079-1.441-0.318-2.045c-0.396-0.604-1.034-1.007-1.75-1.105c-0.776-0.106-1.568-0.16-2.354-0.16 c-12.637,0-25.152,13.19-30.434,32.076c-3.099,11.08-4.008,27.738,3.629,38.225c4.272,5.866,10.507,9,18.528,9.312 c0.033,0.001,0.065,0.002,0.099,0.002c9.897,0,18.675-6.666,21.345-16.209C96.098,65.559,95.376,59.575,92.471,54.413z"/></symbol></svg>