<?xml version="1.0" standalone="no"?>
<!DOCTYPE svg PUBLIC "-//W3C//DTD SVG 20010904//EN"
 "http://www.w3.org/TR/2001/REC-SVG-20010904/DTD/svg10.dtd">
<svg version="1.0" xmlns="http://www.w3.org/2000/svg"
 width="250.000000pt" height="250.000000pt" viewBox="0 0 250.000000 250.000000"
 preserveAspectRatio="xMidYMid meet">
<metadata>
Created by potrace 1.11, written by Peter Selinger 2001-2013
</metadata>
<g transform="translate(0.000000,250.000000) scale(0.100000,-0.100000)"
fill="#000000" stroke="none">
<path d="M1060 2455 c-607 -93 -1057 -634 -1035 -1245 8 -254 84 -476 233
-683 51 -72 164 -190 222 -235 163 -124 338 -206 525 -246 71 -15 409 -17 465
-3 14 4 48 12 75 18 128 30 312 119 433 209 244 183 418 464 471 760 8 44 7
395 -1 435 -34 172 -107 345 -203 480 -58 81 -64 89 -132 159 -178 182 -425
310 -678 351 -78 13 -291 12 -375 0z m355 -249 c45 -8 168 -47 183 -58 6 -6
12 -8 12 -4 0 10 98 -42 175 -92 83 -55 204 -174 260 -258 64 -93 127 -231
145 -318 4 -23 11 -52 15 -66 13 -50 12 -246 -1 -323 -26 -149 -81 -278 -169
-402 -52 -72 -189 -215 -206 -215 -4 0 -14 -6 -21 -13 -39 -38 -163 -102 -265
-136 -143 -48 -349 -59 -498 -27 -388 83 -711 424 -762 804 -9 65 -9 264 -1
302 4 14 11 45 17 70 49 211 179 411 351 541 36 27 70 53 76 58 19 16 131 70
186 90 66 25 124 40 180 47 24 4 44 8 46 9 5 5 241 -3 277 -9z"/>
</g>
</svg>
